<?xml version="1.0" encoding="UTF-8"?>
<svg xmlns="http://www.w3.org/2000/svg" width="50" height="50" viewBox="0 0 24 24" fill="#003087">
  <path d="M20.067 8.478c.492.926.763 2.001.763 3.3 0 3.296-2.787 7.022-7.56 7.022h-.29a.924.924 0 0 0-.656.275.956.956 0 0 0-.251.676l-.186 1.07-.053.29c-.035.203-.185.34-.392.34h-2.672c-.21 0-.343-.134-.304-.344l.865-5.481a.587.587 0 0 1 .58-.496h1.723c4.648 0 7.654-1.897 8.614-4.308a.609.609 0 0 0-.078-.599c-.16-.232-.411-.345-.77-.345h-8.333c-.252 0-.492.097-.67.275a.945.945 0 0 0-.282.68l-.99 6.307-.052.29c-.035.203-.186.34-.393.34H4.17c-.21 0-.343-.133-.304-.344l1.494-9.479a.587.587 0 0 1 .58-.496h7.345c1.232 0 2.161.261 2.783.782"/>
  <path d="M7.276 8.514c.055-.347.345-.603.693-.603h4.435c.53 0 1.025.077 1.476.236.136.049.27.105.4.17.126.063.25.133.37.211a2.246 2.246 0 0 1 .585.595c.227.34.395.74.502 1.196a.6.6 0 0 1-.078.506 3.144 3.144 0 0 1-.421.617 4.756 4.756 0 0 1-1.222 1.051c-.519.309-1.091.523-1.717.638a8.406 8.406 0 0 1-1.843.16h-.438a.699.699 0 0 0-.692.599L9.171 17.3c-.034.215-.21.371-.424.371H6.585c-.226 0-.369-.157-.327-.37l1.018-8.788" fill="#0070E0"/>
</svg> 