<?xml version="1.0" encoding="UTF-8"?>
<!DOCTYPE svg PUBLIC "-//W3C//DTD SVG 1.1//EN" "http://www.w3.org/Graphics/SVG/1.1/DTD/svg11.dtd">
<!-- Creator: CorelDRAW 2021 (64-Bit) -->
<svg xmlns="http://www.w3.org/2000/svg" xml:space="preserve" width="4.2332mm" height="4.2332mm" version="1.1" style="shape-rendering:geometricPrecision; text-rendering:geometricPrecision; image-rendering:optimizeQuality; fill-rule:evenodd; clip-rule:evenodd"
viewBox="0 0 423.32 423.32"
 xmlns:xlink="http://www.w3.org/1999/xlink"
 xmlns:xodm="http://www.corel.com/coreldraw/odm/2003">
 <defs>
  <style type="text/css">
   <![CDATA[
    .fil0 {fill:#26FFD3}
    .fil1 {fill:#9020FF}
   ]]>
  </style>
 </defs>
 <g id="Capa_x0020_1">
  <metadata id="CorelCorpID_0Corel-Layer"/>
  <g id="_1903466035712">
   <path class="fil0" d="M46.89 95.43c5.62,-1.41 19.17,-1.57 25.96,-2.31 43.38,-4.72 88.15,-18.74 123.12,-41.51l15.96 -10.77c3.44,1.8 5.4,3.59 8.57,5.87 28.71,20.71 70.1,36.32 106.57,42.9 8.1,1.46 16.29,2.7 24.7,3.58 5.82,0.61 20.71,1.03 25.24,2.28 2.68,70.61 -10.34,129.9 -47.63,186.76 -24.76,37.76 -59.53,69.65 -99.48,93.45 -4.41,2.63 -13.07,7.92 -17.97,9.76 -5.09,-1.88 -14.13,-7.47 -19.14,-10.47 -102.44,-61.28 -152.22,-164.79 -145.9,-279.54zm142.19 -53.53c-24.7,15.6 -53,27.23 -83.74,34.1 -11.56,2.58 -23.02,4.48 -35.16,5.76l-28.82 1.68c-5.52,0.07 -5.78,-0.9 -6.68,2.8 -3.63,14.97 -0.99,53.77 0.99,69.87 7.36,59.96 29.83,113.33 67.65,158.93 10.32,12.45 21.34,22.69 33.11,34.16 8.51,8.28 68.22,51.06 76.92,48.98 10.66,-2.55 59.33,-35.56 71.08,-46.37 12.24,-11.27 17.25,-15.61 29.22,-28.76 53.63,-58.89 84.4,-145.13 75.18,-239 -16.43,-3.52 -46.03,2.46 -102.56,-17.3 -18.6,-6.5 -52.59,-22.84 -66.36,-35.46 -2.82,-2.58 -4.65,-4.38 -7.98,-6.22l-22.85 16.83z"/>
   <path class="fil1" d="M157 175.23c19.67,-0.28 17.55,2.24 27.63,12.52 7.11,7.24 12.29,10.62 18.52,20.57l-14.1 15.44c-36.11,-13.02 -43.36,32.71 -16.46,39.5 13.46,3.4 25.07,-6.45 26.26,-17.73 1.36,-12.94 -4.72,-8.58 0.86,-17.85 2.87,-4.77 8.42,-8.18 13.53,-12.48 24.88,31.04 40.43,34.92 54.28,37.97 14.39,33.7 51.03,18.83 49.96,-7.21 -0.54,-13.23 -10.77,-23.44 -24.15,-23.8 -11.11,-0.31 -16.43,4.2 -22.73,12.73l-5.44 7.52c-14.55,-0.02 -33.4,-16.6 -41.94,-27.96 -1.15,-1.54 -2.09,-3.29 -3.3,-6.13 15.08,-19.82 8.37,-10.48 28.33,-12.46 10.85,-1.07 20.08,-11.53 18.07,-24.21 -4.78,-30.13 -53.38,-20.96 -39.83,13.58l-15 15.53c-8.95,-5.67 -15.66,-15.81 -22.2,-22.39 -11.46,-11.52 -11.39,-11.98 -32.29,-13.24 -7.93,-9.49 -10.25,-19.83 -25.9,-20.06 -32.66,-0.46 -33.85,46.17 -4.58,49.92 20.52,2.62 22.14,-9.59 30.48,-19.76z"/>
  </g>
 </g>
</svg>
