<?xml version="1.0" encoding="UTF-8"?><svg id="Capa_2" xmlns="http://www.w3.org/2000/svg" viewBox="0 0 1006.91 288.56"><defs><style>.cls-1{fill:#0fc;opacity:.85;}.cls-2{fill:#9020ff;}</style></defs><g id="Capa_1-2"><g><path class="cls-2" d="m0,223.24V7.01h51v94.1L122.43,7.01h61.44l-81.57,102.9,87.99,113.34h-62.34L51,123.63v99.62H0Z"/><path class="cls-2" d="m428.14,223.24V52.19h-68.75V7.01h188.8v45.19h-68.45v171.05h-51.6Z"/><path class="cls-2" d="m621.86,7.01v118.85c0,19.09,3.5,33.38,10.51,42.87,7.01,9.5,17.62,14.24,31.84,14.24s24.18-4.42,31.39-13.27c7.21-8.85,10.81-21.72,10.81-38.62V7.01h46.08v124.07c0,31.22-8,55.55-24.01,73-16.01,17.45-38.23,26.17-66.66,26.17s-51.08-8.65-67.03-25.95c-15.96-17.3-23.94-41.61-23.94-72.92V7.01h51Z"/><path class="cls-2" d="m810.66,240.39c1.29-7.06,3.03-14.12,5.22-21.18,2.19-7.06,4.92-14.26,8.2-21.62-12.43-11.13-21.8-23.79-28.11-37.95-6.31-14.17-9.47-29.5-9.47-46.01,0-12.72,1.94-25.05,5.82-36.98,3.88-11.93,9.54-22.82,17-32.66,10.54-14.02,23.41-24.85,38.62-32.51,15.21-7.65,31.47-11.48,48.76-11.48,12.33,0,24.18,1.96,35.57,5.89,11.38,3.93,21.95,9.72,31.69,17.37,13.82,10.84,24.43,24.16,31.84,39.97,7.41,15.81,11.11,33.11,11.11,51.9,0,14.91-2.88,29.28-8.65,43.1-5.77,13.82-13.87,25.8-24.31,35.94-9.35,9.35-19.96,16.58-31.84,21.7-11.88,5.12-23.74,7.68-35.57,7.68-5.07,0-13.72-1.29-25.95-3.88l-.3-.15-.45,3.13c6.76,1.49,21.77,6.16,45.04,14.02,23.26,7.85,43.2,12.23,59.8,13.12l-12.53,38.77c-18.39-1.39-43.99-9.1-76.8-23.11-4.28-1.79-7.51-3.13-9.69-4.03l-1.79-.75c-28.14-11.93-52.54-18.69-73.22-20.28Zm28.93-125.27c0,18.79,5.49,34.52,16.48,47.2,10.98,12.68,24.53,19.01,40.64,19.01s29.77-6.31,40.71-18.94c10.93-12.62,16.4-28.38,16.4-47.27s-5.47-34.82-16.4-47.5c-10.94-12.68-24.51-19.01-40.71-19.01s-29.65,6.34-40.64,19.01c-10.99,12.68-16.48,28.51-16.48,47.5Z"/><polygon class="cls-2" points="295.66 227.13 391.37 227.13 312.14 4.44 220.86 5.17 295.66 227.13"/><polygon class="cls-1" points="135.61 224.75 235.13 224.75 311.82 3.52 216.74 3.52 135.61 224.75"/></g></g></svg>