<?xml version="1.0" encoding="UTF-8" standalone="no"?>
<svg
   width="752.44531pt"
   height="138.047pt"
   viewBox="0 0 752.44531 138.047"
   version="1.1"
   id="svg7"
   sodipodi:docname="katuq_dark.svg"
   inkscape:version="1.3.2 (091e20e, 2023-11-25)"
   xmlns:inkscape="http://www.inkscape.org/namespaces/inkscape"
   xmlns:sodipodi="http://sodipodi.sourceforge.net/DTD/sodipodi-0.dtd"
   xmlns:xlink="http://www.w3.org/1999/xlink"
   xmlns="http://www.w3.org/2000/svg"
   xmlns:svg="http://www.w3.org/2000/svg">
  <sodipodi:namedview
     id="namedview1"
     pagecolor="#ffffff"
     bordercolor="#000000"
     borderopacity="0.25"
     inkscape:showpageshadow="2"
     inkscape:pageopacity="0.0"
     inkscape:pagecheckerboard="0"
     inkscape:deskcolor="#d1d1d1"
     inkscape:document-units="pt"
     inkscape:zoom="0.63733154"
     inkscape:cx="481.69591"
     inkscape:cy="141.21379"
     inkscape:window-width="1248"
     inkscape:window-height="449"
     inkscape:window-x="222"
     inkscape:window-y="37"
     inkscape:window-maximized="0"
     inkscape:current-layer="svg7" />
  <defs
     id="defs2">
    <filter
       id="filter-remove-color"
       x="0"
       y="0"
       width="1"
       height="1">
      <feColorMatrix
         color-interpolation-filters="sRGB"
         values="0 0 0 0 1 0 0 0 0 1 0 0 0 0 1 0 0 0 1 0"
         id="feColorMatrix1" />
    </filter>
    <mask
       id="mask-0">
      <g
         filter="url(#filter-remove-color)"
         id="g1">
        <rect
           x="-136.60001"
           y="-76.800003"
           width="1639.2"
           height="921.59998"
           fill="#000000"
           fill-opacity="0.899994"
           id="rect1" />
      </g>
    </mask>
    <clipPath
       id="clip-0">
      <path
         clip-rule="nonzero"
         d="M 0.878906,0.0585938 H 125.59766 V 154.10547 H 0.878906 Z m 0,0"
         id="path1" />
    </clipPath>
    <clipPath
       id="clip-1">
      <rect
         x="0"
         y="0"
         width="126"
         height="155"
         id="rect2" />
    </clipPath>
    <g
       id="source-1472581"
       clip-path="url(#clip-1)">
      <g
         clip-path="url(#clip-0)"
         id="g2">
        <path
           fill-rule="nonzero"
           fill="#9b00ff"
           fill-opacity="1"
           d="m 125.59766,0.0859375 c -0.76563,-0.0664063 -2.57813,0.0117187 -3.44922,0.0117187 -20.14063,-0.0078124 -40.277346,0 -60.414065,0.0195318 -0.867187,0.003906 -1.738281,0.144531 -2.691406,0.230468 -0.488281,1.238282 -0.953125,2.371094 -1.375,3.519532 -10.972657,29.894531 -21.941407,59.796874 -32.910157,89.691406 -3.796874,10.347656 -7.683593,20.457036 -12.105468,30.496096 -3.34375,7.58984 -5.996094,15.6289 -9.339844,23.21875 -0.816406,1.85156 -1.570312,3.27734 -2.410156,5.3125 -0.335938,0.8125 3.09375,0.64453 3.972656,0.65625 3.199219,0.0547 6.402344,0.10547 9.605469,0.15625 8.570312,0.13672 17.140625,0.27343 25.714843,0.41015 5.371094,0.0859 10.742188,0.17188 16.109376,0.26172 4.875,0.0742 10.484374,0.0156 15.320312,-0.0469 0.488281,-1.28516 0.832031,-2.28907 1.300781,-3.64453 6.207031,-17.83594 12.394531,-35.67578 18.617188,-53.507816 0.4375,-1.25 1.085937,-2.429688 1.625,-3.648438 0.402343,-0.917968 0.84375,-1.824218 1.171875,-2.769531 2.847656,-8.121094 5.679686,-16.25 8.503906,-24.378906 5.50781,-15.832031 11.01563,-31.667969 16.51172,-47.507813 1.76172,-5.070312 3.48828,-10.148437 5.21484,-15.226562 0.3125,-0.925782 0.48438,-1.5 1.02735,-3.2539065"
           id="path2" />
      </g>
    </g>
  </defs>
  <path
     fill-rule="nonzero"
     fill="#00fcd6"
     fill-opacity="1"
     d="m 265.30209,11.303513 c 0.48064,-0.03556 1.02994,-0.113351 1.57925,-0.115576 12.64146,-0.0023 25.28293,0.0023 37.92439,0.01331 0.54686,0.0023 1.09126,0.08224 1.69207,0.128913 0.30407,0.706809 0.5959,1.35138 0.86074,2.004844 6.88844,17.010041 13.77442,34.022307 20.66284,51.036792 2.38116,5.885611 4.82117,11.63786 7.59959,17.35233 2.0967,4.316412 4.19585,8.635052 6.29499,12.953692 0.51252,1.05354 2.40813,2.98281 0.64985,3.62293 -0.51253,0.18671 -1.5106,0.0222 -2.06482,0.0289 -2.00841,0.0289 -4.01927,0.06 -6.02768,0.0889 -5.38273,0.0778 -10.76301,0.15558 -16.14575,0.2356 -3.36943,0.0489 -6.7413,0.0978 -10.11318,0.14669 -3.06043,0.0445 -6.45192,-0.25782 -9.4486,0.20893 -0.39972,-0.72903 -0.68908,-1.53809 -0.98581,-2.30934 -3.89421,-10.14869 -7.78105,-20.299592 -11.68508,-30.44605 -0.27465,-0.713472 -0.68173,-1.382492 -1.02014,-2.075963 -0.25503,-0.522327 -0.52969,-1.037985 -0.73813,-1.575873 -1.78771,-4.620915 -3.56315,-9.24628 -5.3386,-13.871639 -3.45771,-9.00842 -6.9154,-18.019098 -10.36576,-27.031995 -1.10351,-2.885022 -2.18987,-5.774482 -3.27377,-8.663946 -0.19619,-0.526771 -0.51254,-1.062429 -0.0564,-1.731455"
     id="path3"
     style="stroke-width:0.597669" />
  <g
     mask="url(#mask-0)"
     id="g3"
     transform="matrix(0.6277816,0,0,0.5690018,-45.491501,-151.59992)">
    <use
       xlink:href="#source-1472581"
       transform="translate(430,286)"
       id="use3" />
  </g>
  <path
     fill-rule="nonzero"
     fill="#120333"
     fill-opacity="1"
     d="M 147.09767,98.356338 V 12.205916 h 22.41867 V 49.695577 L 200.91523,12.205916 H 227.9221 L 192.06499,53.20072 230.74221,98.356338 H 203.34053 L 169.51634,58.668469 v 39.687869 z m 0,0"
     id="path4"
     style="stroke-width:0.597669" />
  <path
     fill-rule="nonzero"
     fill="#120333"
     fill-opacity="1"
     d="M 365.06295,98.356338 V 30.207266 H 334.8436 v -18.00135 h 82.98734 v 18.00135 h -30.08692 v 68.149072 z m 0,0"
     id="path5"
     style="stroke-width:0.597669" />
  <path
     fill-rule="nonzero"
     fill="#120333"
     fill-opacity="1"
     d="m 450.21564,12.205916 v 47.353843 c 0,7.603731 1.54002,13.298197 4.62008,17.081167 3.08005,3.78297 7.74673,5.67446 13.99511,5.67446 6.03259,0 10.6306,-1.76257 13.79894,-5.28771 3.16834,-3.527376 4.75251,-8.655058 4.75251,-15.38973 v -49.43203 h 20.25576 v 49.43203 c 0,12.43803 -3.51901,22.131052 -10.55457,29.083552 -7.03558,6.95249 -16.80298,10.426512 -29.29975,10.426512 -12.63165,0 -22.453,-3.445132 -29.46651,-10.337612 -7.01349,-6.89247 -10.5227,-16.576612 -10.5227,-29.052426 V 12.205916 Z m 0,0"
     id="path6"
     style="stroke-width:0.597669" />
  <path
     fill-rule="nonzero"
     fill="#120333"
     fill-opacity="1"
     d="m 545.92046,55.281133 c 0,7.485929 2.41303,13.753838 7.24401,18.803727 4.82607,5.052116 10.78264,7.577056 17.86234,7.577056 7.1214,0 13.08775,-2.51605 17.89423,-7.54593 4.80642,-5.029891 7.21215,-11.308917 7.21215,-18.834853 0,-7.565949 -2.40573,-13.873869 -7.21215,-18.92376 -4.80648,-5.049891 -10.77283,-7.574837 -17.89423,-7.574837 -7.0797,0 -13.03627,2.524946 -17.86234,7.574837 -4.83098,5.049891 -7.24401,11.357811 -7.24401,18.92376 m -12.71749,49.907677 c 0.56648,-2.81167 1.33159,-5.625562 2.29288,-8.437232 0.96129,-2.81167 2.16536,-5.68334 3.60729,-8.61504 -5.46365,-4.43644 -9.58102,-9.475212 -12.357,-15.120773 -2.77597,-5.643343 -4.1615,-11.753445 -4.1615,-18.328084 0,-5.069898 0.85094,-9.981982 2.55526,-14.73626 1.70433,-4.752052 4.19584,-9.088472 7.47208,-13.011472 4.63233,-5.583329 10.29218,-9.901962 16.97952,-12.951459 6.68735,-3.049492 13.83082,-4.5742397 21.43531,-4.5742397 5.41708,0 10.6306,0.7823777 15.63321,2.3449137 5.00267,1.566974 9.64725,3.871874 13.93136,6.92359 6.07184,4.316414 10.73852,9.624137 13.99513,15.923163 3.25418,6.296807 4.88251,13.189285 4.88251,20.675216 0,5.941175 -1.26787,11.666757 -3.80103,17.170072 -2.53567,5.505531 -6.09639,10.279811 -10.68459,14.318393 -4.10996,3.72519 -8.77419,6.60576 -13.99752,8.64616 -5.22088,2.0404 -10.43199,3.0606 -15.63326,3.0606 -2.22911,0 -6.03013,-0.51565 -11.40551,-1.54696 l -0.13243,-0.0578 -0.19618,1.24691 c 2.97216,0.59568 9.57122,2.456052 19.79722,5.585562 10.22593,3.12728 18.98793,4.87208 26.2859,5.22771 l -5.5054,15.4475 c -8.08758,-0.55566 -19.33862,-3.62516 -33.7604,-9.20849 -1.87845,-0.71347 -3.29831,-1.24691 -4.2596,-1.60476 l -0.78718,-0.29562 c -12.36926,-4.75428 -23.09794,-7.44814 -32.18607,-8.0816"
     id="path7"
     style="stroke-width:0.597669" />
</svg>
