<?xml version="1.0" encoding="UTF-8"?><svg id="Capa_2" xmlns="http://www.w3.org/2000/svg" viewBox="0 0 1000.48 286.72"><defs><style>.cls-1{fill:#fff;}.cls-2{fill:#0fc;opacity:.85;}.cls-3{fill:#0c0042;}</style></defs><g id="Capa_1-2"><path class="cls-1" d="m0,221.82V6.96h50.68v93.5L121.65,6.96h61.05l-81.05,102.24,87.42,112.61h-61.94L50.68,122.84v98.98H0Z"/><path class="cls-1" d="m425.41,221.82V51.86h-68.31V6.96h187.59v44.9h-68.01v169.96h-51.27Z"/><path class="cls-1" d="m617.89,6.96v118.1c0,18.97,3.48,33.17,10.45,42.6,6.96,9.43,17.51,14.15,31.64,14.15s24.03-4.39,31.19-13.19c7.16-8.79,10.74-21.58,10.74-38.38V6.96h45.79v123.28c0,31.02-7.95,55.2-23.86,72.53-15.91,17.34-37.98,26-66.23,26s-50.75-8.59-66.6-25.78c-15.86-17.19-23.78-41.34-23.78-72.46V6.96h50.68Z"/><path class="cls-1" d="m805.48,238.86c1.28-7.02,3.01-14.03,5.19-21.04,2.17-7.01,4.89-14.17,8.15-21.49-12.35-11.06-21.66-23.63-27.93-37.71-6.27-14.08-9.41-29.31-9.41-45.71,0-12.64,1.93-24.89,5.78-36.75,3.85-11.85,9.48-22.67,16.89-32.45,10.47-13.93,23.26-24.69,38.38-32.3,15.11-7.61,31.27-11.41,48.45-11.41,12.25,0,24.03,1.95,35.34,5.85,11.31,3.9,21.8,9.66,31.49,17.26,13.73,10.77,24.28,24,31.64,39.71,7.36,15.71,11.04,32.89,11.04,51.56,0,14.82-2.87,29.09-8.59,42.82-5.73,13.73-13.78,25.63-24.15,35.71-9.29,9.29-19.83,16.47-31.64,21.56-11.81,5.09-23.59,7.63-35.34,7.63-5.04,0-13.63-1.28-25.78-3.85l-.3-.15-.44,3.11c6.72,1.48,21.63,6.12,44.75,13.93,23.12,7.8,42.92,12.15,59.42,13.04l-12.45,38.53c-18.28-1.38-43.71-9.04-76.31-22.97-4.25-1.78-7.46-3.11-9.63-4l-1.78-.74c-27.96-11.85-52.21-18.57-72.75-20.15Zm28.75-124.47c0,18.67,5.46,34.3,16.37,46.9,10.91,12.59,24.38,18.89,40.38,18.89s29.58-6.27,40.45-18.82c10.87-12.54,16.3-28.2,16.3-46.97s-5.43-34.6-16.3-47.19c-10.87-12.59-24.35-18.89-40.45-18.89s-29.46,6.3-40.38,18.89c-10.92,12.6-16.37,28.33-16.37,47.19Z"/><polygon class="cls-3" points="293.77 225.68 388.87 225.68 310.15 4.41 219.45 5.14 293.77 225.68"/><polygon class="cls-2" points="134.75 223.31 233.62 223.31 309.83 3.5 215.36 3.5 134.75 223.31"/></g></svg>