<?xml version="1.0" encoding="UTF-8"?>
<svg width="200px" height="200px" viewBox="0 0 200 200" version="1.1" xmlns="http://www.w3.org/2000/svg" xmlns:xlink="http://www.w3.org/1999/xlink">
    <title>enviame-logo</title>
    <defs>
        <linearGradient x1="0%" y1="0%" x2="100%" y2="100%" id="linearGradient-1">
            <stop stop-color="#2F35CA" offset="0%"></stop>
            <stop stop-color="#4B51F1" offset="100%"></stop>
        </linearGradient>
    </defs>
    <g id="Page-1" stroke="none" stroke-width="1" fill="none" fill-rule="evenodd">
        <g id="enviame-logo" fill-rule="nonzero">
            <rect id="Rectangle" fill="url(#linearGradient-1)" x="0" y="0" width="200" height="200" rx="30"></rect>
            <g id="Group" transform="translate(25.000000, 70.000000)" fill="#FFFFFF">
                <path d="M15.6,0 C16.9,0 18.1,0.2 19.2,0.7 C20.3,1.2 21.3,1.8 22.1,2.6 C22.9,3.4 23.5,4.3 24,5.4 C24.5,6.5 24.7,7.6 24.7,8.9 C24.7,10.2 24.5,11.3 24,12.4 C23.5,13.5 22.9,14.4 22.1,15.2 C21.3,16 20.3,16.6 19.2,17.1 C18.1,17.6 16.9,17.8 15.6,17.8 L0,17.8 L0,0 L15.6,0 Z M15.6,13 C16.2,13 16.8,12.9 17.3,12.6 C17.8,12.3 18.3,11.9 18.7,11.5 C19.1,11.1 19.4,10.5 19.6,10 C19.8,9.4 19.9,8.8 19.9,8.2 C19.9,7.6 19.8,7 19.6,6.5 C19.4,5.9 19.1,5.4 18.7,5 C18.3,4.6 17.8,4.2 17.3,4 C16.8,3.7 16.2,3.6 15.6,3.6 L4.8,3.6 L4.8,13 L15.6,13 Z" id="Shape"></path>
                <path d="M36.9,0 L49.8,0 L49.8,3.8 L36.9,3.8 L36.9,7.2 L48.5,7.2 L48.5,10.9 L36.9,10.9 L36.9,14.3 L49.8,14.3 L49.8,18 L32.1,18 L32.1,0 L36.9,0 Z" id="Path"></path>
                <path d="M64.7,0 L68.5,0 L73.6,18 L69,18 L67.8,13.8 L59.3,13.8 L58.1,18 L53.5,18 L58.7,0 L64.7,0 Z M67.1,10.2 L64.7,2.5 C64.7,2.5 64.6,2.2 64.6,2.1 C64.5,2 64.5,1.9 64.5,1.9 C64.5,1.9 64.4,2 64.4,2.1 C64.4,2.2 64.3,2.5 64.3,2.5 L62,10.2 L67.1,10.2 Z" id="Shape"></path>
                <path d="M87.3,0 L91.1,0 L91.1,18 L86.3,18 L86.3,7.4 C86.3,7.3 86.3,7.1 86.3,7 C86.3,6.9 86.3,6.7 86.3,6.6 C86.3,6.6 86.2,6.7 86.1,6.8 C86,6.9 85.9,7 85.8,7.2 L79.1,18 L75.3,18 L75.3,0 L80.1,0 L80.1,10.6 C80.1,10.7 80.1,10.9 80.1,11 C80.1,11.1 80.1,11.3 80.1,11.4 C80.1,11.4 80.2,11.3 80.3,11.2 C80.4,11.1 80.5,11 80.6,10.8 L87.3,0 Z" id="Path"></path>
                <polygon id="Path" points="108.6 0 108.6 3.8 101.2 3.8 101.2 18 96.4 18 96.4 3.8 89 3.8 89 0"></polygon>
                <path d="M119.6,0 L123.4,0 L123.4,18 L118.6,18 L118.6,7.4 C118.6,7.3 118.6,7.1 118.6,7 C118.6,6.9 118.6,6.7 118.6,6.6 C118.6,6.6 118.5,6.7 118.4,6.8 C118.3,6.9 118.2,7 118.1,7.2 L111.4,18 L107.6,18 L107.6,0 L112.4,0 L112.4,10.6 C112.4,10.7 112.4,10.9 112.4,11 C112.4,11.1 112.4,11.3 112.4,11.4 C112.4,11.4 112.5,11.3 112.6,11.2 C112.7,11.1 112.8,11 112.9,10.8 L119.6,0 Z" id="Path"></path>
                <path d="M137.7,0 L141.5,0 L141.5,18 L136.7,18 L136.7,7.4 C136.7,7.3 136.7,7.1 136.7,7 C136.7,6.9 136.7,6.7 136.7,6.6 C136.7,6.6 136.6,6.7 136.5,6.8 C136.4,6.9 136.3,7 136.2,7.2 L129.5,18 L125.7,18 L125.7,0 L130.5,0 L130.5,10.6 C130.5,10.7 130.5,10.9 130.5,11 C130.5,11.1 130.5,11.3 130.5,11.4 C130.5,11.4 130.6,11.3 130.7,11.2 C130.8,11.1 130.9,11 131,10.8 L137.7,0 Z" id="Path"></path>
                <path d="M155.4,0 L159.2,0 L159.2,18 L154.4,18 L154.4,7.4 C154.4,7.3 154.4,7.1 154.4,7 C154.4,6.9 154.4,6.7 154.4,6.6 C154.4,6.6 154.3,6.7 154.2,6.8 C154.1,6.9 154,7 153.9,7.2 L147.2,18 L143.4,18 L143.4,0 L148.2,0 L148.2,10.6 C148.2,10.7 148.2,10.9 148.2,11 C148.2,11.1 148.2,11.3 148.2,11.4 C148.2,11.4 148.3,11.3 148.4,11.2 C148.5,11.1 148.6,11 148.7,10.8 L155.4,0 Z" id="Path"></path>
                <path d="M168.4,18 L164.6,18 L164.6,0 L169.4,0 L169.4,14.2 L169.7,14.2 L177.4,0 L181.2,0 L181.2,18 L176.4,18 L176.4,3.8 L176.1,3.8 L168.4,18 Z" id="Path"></path>
            </g>
            <polygon id="Path" fill="#FFFFFF" points="151.1 131.2 151.1 130 148 130 148 131.2 149 131.2 147.7 136 149.1 136 150.4 131.2"></polygon>
            <path d="M152.7,132.1 L151.7,136 L153,136 L153.6,133.6 C153.6,133.6 154,132.5 154.1,132.1 C154.3,132.1 154.8,132.1 154.8,132.1 C154.8,132.1 154.1,135.2 154.1,136 L155.4,136 C155.4,135.3 156.1,132.1 156.1,132.1 L154.8,132.1 C154.8,131.9 154.8,131.8 154.8,131.7 C154.8,131.4 154.9,131.2 155.3,131.2 L156,131.2 L156,130 L154.9,130 C154.1,130 153.4,130.4 153.4,131.5 C153.4,131.7 153.4,132 153.4,132.1 L152.7,132.1 Z" id="Path" fill="#FFFFFF" fill-rule="nonzero"></path>
            <path d="M156.2,136 L157.5,136 L157.5,133 L158.7,133 L158.7,132 L157.5,132 L157.5,131.2 L159.1,131.2 L159.1,130 L156.2,130 L156.2,136 Z" id="Path" fill="#FFFFFF"></path>
        </g>
    </g>
</svg>
